<svg width="70" height="70" viewBox="0 0 70 70" fill="none" xmlns="http://www.w3.org/2000/svg">
<path d="M59.0976 0H10.9024C4.89084 0 0 4.8907 0 10.9024V59.0976C0 65.1093 4.89084 70 10.9024 70H59.0975C65.1092 70 70 65.1093 70 59.0976V10.9024C70 4.8907 65.1092 0 59.0976 0ZM67.9492 59.0976C67.9492 63.9785 63.9784 67.9492 59.0976 67.9492H10.9024C6.02164 67.9492 2.05078 63.9785 2.05078 59.0976V10.9024C2.05078 6.0215 6.02164 2.05078 10.9024 2.05078H59.0975C63.9784 2.05078 67.9492 6.0215 67.9492 10.9024V59.0976Z" fill="black"/>
<path d="M59.0973 4.86908H10.902C7.57499 4.86908 4.8681 7.57584 4.8681 10.903V14.0101C4.8681 14.5764 5.3272 15.0355 5.89349 15.0355C6.45978 15.0355 6.91888 14.5764 6.91888 14.0101V10.903C6.91888 8.70678 8.70565 6.91986 10.902 6.91986H59.0972C61.2934 6.91986 63.0803 8.70664 63.0803 10.903V59.0982C63.0803 61.2945 61.2936 63.0813 59.0972 63.0813H10.902C8.70579 63.0813 6.91888 61.2945 6.91888 59.0982V18.8037C6.91888 18.2374 6.45978 17.7783 5.89349 17.7783C5.3272 17.7783 4.8681 18.2374 4.8681 18.8037V59.0982C4.8681 62.4253 7.57485 65.1321 10.902 65.1321H59.0972C62.4244 65.1321 65.1311 62.4253 65.1311 59.0982V10.903C65.1311 7.57584 62.4245 4.86908 59.0973 4.86908V4.86908Z" fill="black"/>
<path d="M51.4912 33.6553C48.625 31.6327 43.8027 30.8617 39.9407 31.7429C39.5425 31.133 39.0349 30.6014 38.4452 30.1759C39.214 28.5892 40.553 27.4201 42.8695 26.2718C44.088 25.6675 45.6048 24.9154 45.6048 22.9215C45.6048 17.4758 40.1236 14.105 35.0453 14.105C29.2229 14.105 24.486 18.06 24.486 22.9215C24.486 25.3359 25.6689 28.5551 27.4995 31.1226C28.0876 31.947 28.7124 32.6727 29.3623 33.2908C29.235 33.723 29.1548 34.1751 29.1306 34.642C27.5092 34.5238 25.981 33.7934 24.09 32.2662L24.0646 32.2457C23.018 31.4 21.7154 30.3471 19.9033 31.1807C14.9557 33.4557 14.1831 39.8438 16.3047 44.4577C18.5475 49.3354 23.9777 52.5517 28.7262 50.3679C32.0744 48.8283 35.3744 44.5933 36.3681 40.677C36.6645 40.6066 36.9521 40.5143 37.2294 40.4008C38.1985 41.8468 38.6479 43.5694 38.1542 46.7436C37.9453 48.0877 37.6852 49.7605 39.3145 50.9104C43.6393 53.9624 49.5692 51.6696 52.6062 47.3661C54.1261 45.2124 54.9343 42.5581 54.8239 40.0842C54.7027 37.3695 53.5192 35.0863 51.4912 33.6553V33.6553ZM29.1693 29.9317C27.5947 27.7235 26.5369 24.9062 26.5369 22.9214C26.5369 19.1907 30.3538 16.1557 35.0454 16.1557C40.3011 16.1557 43.5541 19.6676 43.5541 22.9214C43.5541 23.5582 43.2333 23.8022 41.9586 24.4343C39.2232 25.7904 37.5646 27.2776 36.5972 29.2837C36.0916 29.1418 35.5594 29.0643 35.0089 29.0643C33.1102 29.0643 31.4194 29.9688 30.3423 31.3688C29.9398 30.9411 29.5473 30.4618 29.1693 29.9317ZM27.8695 48.5046C24.1852 50.1992 19.9275 47.4274 18.1681 43.6007C15.9724 38.8257 17.804 34.403 20.7603 33.0436C21.3393 32.7775 21.6897 32.9629 22.7758 33.8405L22.8015 33.8612C25.1714 35.7752 27.1918 36.6564 29.3908 36.7085C30.0627 38.8513 31.9296 40.4692 34.207 40.7809C33.1252 44.1588 30.1874 47.4387 27.8695 48.5046ZM35.0089 38.7863C32.8939 38.7863 31.1733 37.0657 31.1733 34.9507C31.1733 32.8356 32.8939 31.115 35.0089 31.115C37.1238 31.115 38.8446 32.8356 38.8446 34.9507C38.8446 37.0865 37.0986 38.7863 35.0089 38.7863ZM50.9308 46.1835C48.5144 49.6076 43.828 51.5854 40.4972 49.2347C39.9768 48.8674 39.9624 48.4647 40.181 47.0585C40.696 43.7461 40.3441 41.4186 38.962 39.3086C40.5269 37.8878 41.2172 35.7501 40.7533 33.6694C43.964 33.0578 48.0404 33.7302 50.3089 35.3309C51.807 36.3881 52.683 38.1088 52.7754 40.1755C52.8659 42.2042 52.1937 44.394 50.9308 46.1835V46.1835Z" fill="black"/>
<path d="M53.0013 57.9004C53.0013 60.1243 54.8105 61.9336 57.0345 61.9336C59.2585 61.9336 61.0677 60.1243 61.0677 57.9004C61.0677 55.6765 59.2585 53.8672 57.0345 53.8672C54.8105 53.8672 53.0013 55.6765 53.0013 57.9004ZM59.017 57.9004C59.017 58.9935 58.1276 59.8828 57.0345 59.8828C55.9415 59.8828 55.0521 58.9935 55.0521 57.9004C55.0521 56.8073 55.9415 55.918 57.0345 55.918C58.1276 55.918 59.017 56.8073 59.017 57.9004Z" fill="black"/>
<path d="M53.2326 19.3135C52.7914 19.6687 52.7218 20.3141 53.0769 20.7552C56.4226 24.9113 58.1911 29.9343 58.1911 35.2813C58.1911 48.0638 47.7919 58.4632 35.0092 58.4632C29.6624 58.4632 24.6394 56.6946 20.4832 53.3488C20.0423 52.9937 19.3967 53.0635 19.0415 53.5045C18.6865 53.9457 18.7562 54.5912 19.1973 54.9462C23.6572 58.5366 29.2726 60.514 35.0092 60.514C48.9225 60.514 60.2419 49.1946 60.2419 35.2813C60.2419 29.5446 58.2645 23.9291 54.6741 19.4692C54.3192 19.028 53.6738 18.9584 53.2326 19.3135V19.3135Z" fill="black"/>
<path d="M51.1739 15.9053C46.6514 12.1287 40.9107 10.0488 35.0095 10.0488C21.0962 10.0488 9.77681 21.3682 9.77681 35.2816C9.77681 41.183 11.8567 46.9235 15.6333 51.4459C15.836 51.6887 16.1274 51.8139 16.4209 51.8139C16.6527 51.8139 16.8858 51.7357 17.0777 51.5756C17.5124 51.2127 17.5705 50.566 17.2075 50.1313C13.7382 45.977 11.8276 40.7034 11.8276 35.2816C11.8276 22.499 22.227 12.0996 35.0095 12.0996C40.4312 12.0996 45.705 14.0103 49.8593 17.4795C50.2941 17.8426 50.9406 17.7842 51.3036 17.3497C51.6666 16.915 51.6084 16.2684 51.1739 15.9053Z" fill="black"/>
</svg>
