<svg width="25" height="25" viewBox="0 0 25 25" fill="none" xmlns="http://www.w3.org/2000/svg">
<path d="M17.2563 22.9155H17.2854C17.8354 22.9155 18.3552 22.6989 18.749 22.3051L21.574 19.4801C21.6708 19.3835 21.7476 19.2687 21.8 19.1423C21.8524 19.0159 21.8794 18.8805 21.8794 18.7437C21.8794 18.6069 21.8524 18.4714 21.8 18.345C21.7476 18.2187 21.6708 18.1039 21.574 18.0072L17.4073 13.8405C17.3106 13.7437 17.1958 13.6669 17.0695 13.6145C16.9431 13.5621 16.8076 13.5351 16.6708 13.5351C16.534 13.5351 16.3986 13.5621 16.2722 13.6145C16.1458 13.6669 16.031 13.7437 15.9344 13.8405L14.274 15.501C13.5042 15.2718 12.0677 14.751 11.1573 13.8405C10.2469 12.9301 9.72605 11.4937 9.49688 10.7239L11.1573 9.06346C11.2541 8.96681 11.3309 8.85201 11.3833 8.72564C11.4357 8.59927 11.4627 8.46381 11.4627 8.327C11.4627 8.1902 11.4357 8.05473 11.3833 7.92836C11.3309 7.80199 11.2541 7.6872 11.1573 7.59054L6.99063 3.42388C6.79149 3.23591 6.52801 3.1312 6.25417 3.1312C5.98033 3.1312 5.71686 3.23591 5.51771 3.42388L2.69376 6.24888C2.29792 6.64471 2.07501 7.18846 2.08334 7.74367C2.1073 9.227 2.50001 14.3791 6.56042 18.4395C10.6208 22.4999 15.7729 22.8916 17.2563 22.9155V22.9155ZM6.25522 5.63325L8.94896 8.327L7.60209 9.67388C7.47952 9.79611 7.38948 9.94706 7.34018 10.113C7.29087 10.2789 7.28387 10.4545 7.3198 10.6239C7.3448 10.7437 7.95626 13.5843 9.68542 15.3135C11.4146 17.0426 14.2552 17.6541 14.375 17.6791C14.5443 17.7152 14.72 17.7083 14.886 17.659C15.0519 17.6097 15.2029 17.5195 15.325 17.3968L16.6719 16.0499L19.3656 18.7437L17.276 20.8322C15.976 20.8103 11.5281 20.4614 8.03334 16.9655C4.52709 13.4593 4.18751 8.99575 4.16667 7.72179L6.25522 5.63325ZM20.8323 11.4572H22.9156C22.9156 6.11346 18.8813 2.08325 13.5302 2.08325V4.16659C17.7615 4.16659 20.8323 7.23221 20.8323 11.4572V11.4572Z" fill="#C4C4C4"/>
<path d="M13.5406 8.33333C15.7312 8.33333 16.6656 9.26771 16.6656 11.4583H18.7489C18.7489 8.09896 16.9 6.25 13.5406 6.25V8.33333V8.33333Z" fill="#C4C4C4"/>
</svg>
