<svg width="70" height="70" viewBox="0 0 70 70" fill="none" xmlns="http://www.w3.org/2000/svg">
<g clip-path="url(#clip0)">
<path d="M58.9118 18.6273C59.4783 18.6273 59.9372 18.1682 59.9372 17.6019C59.9372 17.0356 59.4783 16.5765 58.9118 16.5765H54.7716C54.2713 16.5765 53.8441 16.9374 53.7606 17.4306L52.9404 22.2737C52.876 22.6539 53.032 23.0373 53.3416 23.2674C53.6513 23.4975 54.0654 23.5331 54.4107 23.3617C54.4193 23.3573 54.4532 23.341 54.5076 23.317C54.9706 23.1131 55.3418 22.9794 56.2454 22.9794C56.9089 22.9794 57.5224 23.2407 57.9723 23.7152C58.4015 24.1678 58.6198 24.7562 58.5871 25.3724C58.5245 26.5541 57.5176 27.4985 56.2948 27.5226C56.2785 27.523 56.2624 27.523 56.2462 27.523C55.0773 27.523 54.0829 26.6894 53.9227 25.5659C53.9079 25.4626 53.9004 25.3568 53.9004 25.2511C53.9004 24.6849 53.4414 24.2258 52.875 24.2258C52.3086 24.2258 51.8496 24.6849 51.8496 25.2511C51.8496 25.4536 51.864 25.6572 51.8924 25.8558C52.1969 27.9899 54.0598 29.5739 56.2458 29.5738C56.2755 29.5738 56.3054 29.5735 56.3351 29.573C58.6271 29.5277 60.5157 27.7303 60.6349 25.481C60.6978 24.2974 60.2805 23.1692 59.4602 22.304C58.6313 21.43 57.4595 20.9286 56.2453 20.9286C55.861 20.9286 55.5323 20.9487 55.2381 20.9872L55.6378 18.627H58.9118V18.6273Z" fill="#191721"/>
<path d="M42.2105 25.435C42.2105 27.7575 44.0999 29.6471 46.4226 29.6471C48.7451 29.6471 50.6347 27.7576 50.6347 25.435C50.6347 24.0719 49.9832 22.8586 48.976 22.0882C49.4715 21.5042 49.7713 20.7491 49.7713 19.9251C49.7713 18.0787 48.2691 16.5765 46.4228 16.5765C44.5762 16.5765 43.0741 18.0787 43.0741 19.9251C43.0741 20.7493 43.3739 21.5042 43.8694 22.0882C42.8619 22.8586 42.2105 24.0719 42.2105 25.435ZM46.4226 27.5963C45.2308 27.5963 44.2612 26.6268 44.2612 25.435C44.2612 24.2433 45.2308 23.2738 46.4226 23.2738C47.6144 23.2738 48.5839 24.2433 48.5839 25.435C48.5837 26.6267 47.6144 27.5963 46.4226 27.5963ZM45.1248 19.9251C45.1248 19.2095 45.707 18.6273 46.4226 18.6273C47.1382 18.6273 47.7204 19.2095 47.7204 19.9251C47.7204 20.6407 47.1382 21.223 46.4226 21.223C45.707 21.223 45.1248 20.6409 45.1248 19.9251Z" fill="#191721"/>
<path d="M68.9746 32.6389H65.3405C66.4784 30.2697 67.1454 27.8237 67.3091 25.3607C67.6149 20.7539 66.1397 16.3162 63.155 12.8647C62.7847 12.4364 62.1369 12.3895 61.7088 12.7599C61.2803 13.1302 61.2333 13.7777 61.6038 14.2062C65.4443 18.6474 66.8693 25.5623 63.0472 32.639H41.3917C40.3584 32.639 39.4371 33.3325 39.1511 34.3252L36.1464 44.7516C36.1286 44.8136 36.0835 44.9782 35.8468 44.9533C35.6124 44.9285 35.6005 44.7576 35.596 44.6934L34.2318 25.1571C34.1478 23.954 33.2482 23.0637 32.0443 22.992C30.8401 22.9209 29.8415 23.6976 29.6151 24.8823L27.0437 38.3462C27.033 38.4028 27.0002 38.5745 26.7683 38.5745C26.7676 38.5745 26.7671 38.5745 26.7664 38.5745C26.533 38.5736 26.5014 38.4008 26.491 38.344L24.7916 29.0477C24.6012 28.0062 23.7647 27.2415 22.7104 27.145C21.6563 27.0482 20.6947 27.6484 20.3183 28.6378L18.5207 33.3631C18.4795 33.4714 18.3739 33.5443 18.258 33.5443H7.39895C5.74957 30.7816 4.83492 27.8893 4.71543 24.9847C4.54467 20.8343 6.00646 16.8894 8.83189 13.8767C13.9234 8.44706 23.6119 6.30345 32.8513 14.4265C34.0504 15.4804 35.8574 15.48 37.0547 14.425C40.612 11.2907 44.568 9.42693 48.4954 9.03537C52.014 8.68454 55.4142 9.48982 58.3287 11.364C58.8046 11.6702 59.4394 11.5325 59.7458 11.0562C60.0521 10.5799 59.9144 9.94537 59.4379 9.63912C53.8334 6.03507 44.6541 4.9956 35.699 12.8862C35.2737 13.2609 34.6315 13.2611 34.2054 12.8862C29.6346 8.86775 24.5141 6.83775 19.3875 7.00919C14.7738 7.16574 10.4937 9.10632 7.33592 12.4738C4.13123 15.8913 2.47283 20.3644 2.66643 25.0691C2.78496 27.95 3.59379 30.8055 5.04533 33.5443H1.02539C0.458965 33.5443 0 34.0034 0 34.5696C0 35.1359 0.458965 35.595 1.02539 35.595H6.26596C7.28014 37.1237 8.50104 38.6064 9.92072 40.0259L17.2581 47.3632C17.4584 47.5634 17.7209 47.6636 17.9833 47.6636C18.2458 47.6636 18.5082 47.5634 18.7085 47.3632C19.1089 46.9628 19.1089 46.3135 18.7083 45.9131L11.3709 38.5758C10.4044 37.6093 9.53969 36.6135 8.77693 35.5949H18.2584C19.2201 35.5949 20.096 34.991 20.4378 34.0922L22.2354 29.3671C22.2858 29.2349 22.3826 29.1744 22.5236 29.1872C22.6646 29.2 22.749 29.2773 22.7745 29.4164L24.4739 38.7128C24.679 39.8343 25.6184 40.6207 26.7585 40.6252C26.7617 40.6253 26.765 40.6253 26.7683 40.6253C27.904 40.6252 28.8448 39.8475 29.0582 38.7308L31.6296 25.2668C31.6423 25.2004 31.6761 25.0241 31.9225 25.039C32.169 25.0536 32.1814 25.2326 32.1862 25.2998L33.5504 44.8361C33.6306 45.9847 34.4863 46.8715 35.6314 46.9925C35.7187 47.0016 35.8053 47.0063 35.8907 47.0063C36.928 47.0063 37.8227 46.3411 38.1172 45.3193L41.1219 34.8927C41.1563 34.7731 41.2673 34.6895 41.3919 34.6895H61.7911C60.8978 35.9918 59.8191 37.292 58.5354 38.5756L57.8498 39.2611C57.4492 39.6616 57.4492 40.3109 57.8497 40.7113C58.05 40.9115 58.3123 41.0117 58.5748 41.0117C58.8372 41.0117 59.0997 40.9116 59.2998 40.7115L59.9856 40.0258C61.6839 38.3275 63.1019 36.5384 64.2265 34.6895H68.9746C69.541 34.6895 70 34.2304 70 33.6642C70 33.098 69.541 32.6389 68.9746 32.6389V32.6389Z" fill="#191721"/>
<path d="M54.59 42.5209L36.8652 60.2457C35.8108 61.3002 34.0951 61.3 33.041 60.2457L21.9641 49.1687C21.5634 48.7681 20.9142 48.7684 20.5139 49.1687C20.1135 49.5692 20.1135 50.2184 20.5139 50.6189L31.591 61.6958C32.4891 62.5939 33.6832 63.0885 34.9533 63.0885C36.2234 63.0885 37.4174 62.5938 38.3156 61.6958L56.0405 43.9711C56.441 43.5706 56.441 42.9213 56.0405 42.521C55.6397 42.1205 54.9905 42.1205 54.59 42.5209V42.5209Z" fill="#191721"/>
</g>
<defs>
<clipPath id="clip0">
<rect width="70" height="70" fill="white"/>
</clipPath>
</defs>
</svg>
