<svg width="81" height="75" viewBox="0 0 81 75" fill="none" xmlns="http://www.w3.org/2000/svg">
<rect x="12" y="12" width="56" height="52" fill="#FFCD2A"/>
<path d="M49.1875 29.75H30.8125C30.7094 29.75 30.625 29.8344 30.625 29.9375V31.4375C30.625 31.5406 30.7094 31.625 30.8125 31.625H49.1875C49.2906 31.625 49.375 31.5406 49.375 31.4375V29.9375C49.375 29.8344 49.2906 29.75 49.1875 29.75ZM49.1875 44.375H30.8125C30.7094 44.375 30.625 44.4594 30.625 44.5625V46.0625C30.625 46.1656 30.7094 46.25 30.8125 46.25H49.1875C49.2906 46.25 49.375 46.1656 49.375 46.0625V44.5625C49.375 44.4594 49.2906 44.375 49.1875 44.375ZM49.1875 37.0625H30.8125C30.7094 37.0625 30.625 37.1469 30.625 37.25V38.75C30.625 38.8531 30.7094 38.9375 30.8125 38.9375H49.1875C49.2906 38.9375 49.375 38.8531 49.375 38.75V37.25C49.375 37.1469 49.2906 37.0625 49.1875 37.0625Z" fill="#100F14"/>
<rect x="0.5" y="0.5" width="79.7692" height="74" stroke="#FFCD2A"/>
</svg>
