<svg width="62" height="54" viewBox="0 0 62 54" fill="none" xmlns="http://www.w3.org/2000/svg">
<rect width="62" height="54" rx="5" fill="#100F14"/>
<path d="M30.4984 17.4876C25.5106 17.4876 21.4852 21.513 21.4852 26.5008C21.4852 31.4886 25.5106 35.514 30.4984 35.514C35.4862 35.514 39.5116 31.4886 39.5116 26.5008C39.5116 21.513 35.4862 17.4876 30.4984 17.4876ZM30.4984 32.3587C27.2728 32.3587 24.6405 29.7264 24.6405 26.5008C24.6405 23.2752 27.2728 20.6429 30.4984 20.6429C33.724 20.6429 36.3563 23.2752 36.3563 26.5008C36.3563 29.7264 33.724 32.3587 30.4984 32.3587ZM39.8807 15.0179C38.7162 15.0179 37.7757 15.9583 37.7757 17.1229C37.7757 18.2874 38.7162 19.2279 39.8807 19.2279C41.0453 19.2279 41.9857 18.2918 41.9857 17.1229C41.986 16.8464 41.9318 16.5725 41.8262 16.3169C41.7205 16.0614 41.5655 15.8292 41.3699 15.6337C41.1744 15.4381 40.9422 15.2831 40.6867 15.1774C40.4311 15.0718 40.1572 15.0176 39.8807 15.0179V15.0179ZM48.0677 26.5008C48.0677 24.075 48.0897 21.6712 47.9535 19.2498C47.8172 16.4373 47.1756 13.9412 45.119 11.8846C43.058 9.82357 40.5663 9.18637 37.7538 9.05014C35.328 8.9139 32.9242 8.93588 30.5028 8.93588C28.077 8.93588 25.6732 8.9139 23.2518 9.05014C20.4393 9.18637 17.9432 9.82797 15.8866 11.8846C13.8255 13.9456 13.1883 16.4373 13.0521 19.2498C12.9159 21.6756 12.9378 24.0794 12.9378 26.5008C12.9378 28.9222 12.9159 31.3304 13.0521 33.7518C13.1883 36.5643 13.8299 39.0604 15.8866 41.117C17.9476 43.1781 20.4393 43.8153 23.2518 43.9515C25.6776 44.0877 28.0814 44.0658 30.5028 44.0658C32.9286 44.0658 35.3324 44.0877 37.7538 43.9515C40.5663 43.8153 43.0624 43.1737 45.119 41.117C47.18 39.056 47.8172 36.5643 47.9535 33.7518C48.0941 31.3304 48.0677 28.9266 48.0677 26.5008V26.5008ZM44.2005 36.8631C43.8797 37.6629 43.493 38.2606 42.8734 38.8758C42.2538 39.4954 41.6605 39.8822 40.8607 40.203C38.5492 41.1214 33.0604 40.9149 30.4984 40.9149C27.9364 40.9149 22.4432 41.1214 20.1317 40.2074C19.3319 39.8866 18.7342 39.4998 18.119 38.8802C17.4994 38.2606 17.1127 37.6673 16.7919 36.8675C15.8778 34.5516 16.0843 29.0628 16.0843 26.5008C16.0843 23.9388 15.8778 18.4456 16.7919 16.1341C17.1127 15.3343 17.4994 14.7367 18.119 14.1214C18.7386 13.5062 19.3319 13.1151 20.1317 12.7943C22.4432 11.8802 27.9364 12.0868 30.4984 12.0868C33.0604 12.0868 38.5536 11.8802 40.8651 12.7943C41.6649 13.1151 42.2626 13.5018 42.8778 14.1214C43.4974 14.7411 43.8841 15.3343 44.2049 16.1341C45.119 18.4456 44.9125 23.9388 44.9125 26.5008C44.9125 29.0628 45.119 34.5516 44.2005 36.8631Z" fill="white"/>
</svg>
