<svg width="70" height="70" viewBox="0 0 70 70" fill="none" xmlns="http://www.w3.org/2000/svg">
<g clip-path="url(#clip0)">
<path d="M20.0746 18.4673C19.3906 18.4673 18.8362 19.0217 18.8362 19.7057C18.8362 20.3897 19.3906 20.9441 20.0746 20.9441C20.7585 20.9441 21.313 20.3897 21.313 19.7057C21.3129 19.0217 20.7585 18.4673 20.0746 18.4673Z" fill="#191721"/>
<path d="M20.0746 26.2356C19.3906 26.2356 18.8362 26.79 18.8362 27.474C18.8362 28.1579 19.3906 28.7124 20.0746 28.7124C20.7585 28.7124 21.313 28.158 21.313 27.474C21.3129 26.79 20.7585 26.2356 20.0746 26.2356Z" fill="#191721"/>
<path d="M20.0746 34.0039C19.3906 34.0039 18.8362 34.5583 18.8362 35.2423C18.8362 35.9262 19.3906 36.4807 20.0746 36.4807C20.7585 36.4807 21.313 35.9262 21.313 35.2423C21.3129 34.5583 20.7585 34.0039 20.0746 34.0039V34.0039Z" fill="#191721"/>
<path d="M20.0746 41.7722C19.3906 41.7722 18.8362 42.3266 18.8362 43.0106C18.8362 43.6946 19.3906 44.249 20.0746 44.249C20.7585 44.249 21.313 43.6946 21.313 43.0106C21.3129 42.3266 20.7585 41.7722 20.0746 41.7722Z" fill="#191721"/>
<path d="M20.0746 49.5408C19.3906 49.5408 18.8362 50.0952 18.8362 50.7792C18.8362 51.463 19.3906 52.0176 20.0746 52.0176C20.7585 52.0176 21.313 51.4632 21.313 50.7792C21.3129 50.0952 20.7585 49.5408 20.0746 49.5408Z" fill="#191721"/>
<path d="M20.0746 57.3091C19.3906 57.3091 18.8362 57.8635 18.8362 58.5475C18.8362 59.2315 19.3906 59.7859 20.0746 59.7859C20.7585 59.7859 21.313 59.2315 21.313 58.5475C21.3129 57.8635 20.7585 57.3091 20.0746 57.3091Z" fill="#191721"/>
<path d="M51.0958 19.7057C51.0958 19.0217 50.5414 18.4673 49.8574 18.4673C49.1735 18.4673 48.619 19.0217 48.619 19.7057C48.619 20.3897 49.1734 20.9441 49.8574 20.9441C50.5414 20.9441 51.0958 20.3895 51.0958 19.7057Z" fill="#191721"/>
<path d="M51.0958 27.474C51.0958 26.7901 50.5414 26.2356 49.8574 26.2356C49.1735 26.2356 48.619 26.79 48.619 27.474C48.619 28.1579 49.1734 28.7124 49.8574 28.7124C50.5414 28.7123 51.0958 28.1579 51.0958 27.474Z" fill="#191721"/>
<path d="M51.0958 35.2423C51.0958 34.5583 50.5414 34.0039 49.8574 34.0039C49.1735 34.0039 48.619 34.5583 48.619 35.2423C48.619 35.9262 49.1734 36.4807 49.8574 36.4807C50.5414 36.4807 51.0958 35.9262 51.0958 35.2423Z" fill="#191721"/>
<path d="M51.0958 43.0105C51.0958 42.3266 50.5414 41.7721 49.8574 41.7721C49.1735 41.7721 48.619 42.3265 48.619 43.0105C48.619 43.6945 49.1734 44.2489 49.8574 44.2489C50.5414 44.2489 51.0958 43.6945 51.0958 43.0105Z" fill="#191721"/>
<path d="M51.0958 50.779C51.0958 50.095 50.5414 49.5406 49.8574 49.5406C49.1735 49.5406 48.619 50.095 48.619 50.779C48.619 51.4629 49.1734 52.0174 49.8574 52.0174C50.5414 52.0174 51.0958 51.463 51.0958 50.779Z" fill="#191721"/>
<path d="M49.8574 57.3091C49.1735 57.3091 48.619 57.8635 48.619 58.5475C48.619 59.2315 49.1734 59.7859 49.8574 59.7859C50.5414 59.7859 51.0958 59.2315 51.0958 58.5475C51.0957 57.8635 50.5413 57.3091 49.8574 57.3091Z" fill="#191721"/>
<path d="M69.6922 64.7236C69.2316 63.8549 68.3345 63.3151 67.3508 63.3151H55.8206V60.1792C55.9449 60.1989 56.0714 60.212 56.2011 60.212H58.7055C60.0462 60.212 61.1368 59.1212 61.1368 57.7807V52.5664H68.9064C69.4727 52.5664 69.9318 52.1074 69.9318 51.541C69.9318 50.9747 69.4727 50.5156 68.9064 50.5156H61.1368V45.3017C61.1368 43.9611 60.0461 42.8704 58.7055 42.8704H56.2011C56.0714 42.8704 55.9449 42.8836 55.8206 42.9033V39.009C55.8206 38.4425 55.3617 37.9836 54.7952 37.9836C54.2288 37.9836 53.7698 38.4425 53.7698 39.009V63.3152H45.945V11.1574H48.8321V13.1757C48.8321 13.7421 49.2911 14.2011 49.8575 14.2011C50.4239 14.2011 50.8829 13.7421 50.8829 13.1757V11.1574H53.7698V34.3895C53.7698 34.9559 54.2288 35.4149 54.7952 35.4149C55.3617 35.4149 55.8206 34.9559 55.8206 34.3895V19.6544H61.1272C62.2203 19.6544 63.1096 18.765 63.1096 17.672V17.1124H65.6908C66.7838 17.1124 67.6732 16.223 67.6732 15.1299V11.1574H68.9071C69.4735 11.1574 69.9325 10.6985 69.9325 10.1321C69.9325 9.56562 69.4735 9.10666 68.9071 9.10666H67.6732V6.46717C67.6732 5.3741 66.7838 4.48475 65.6908 4.48475H63.1096V3.79473C63.1096 2.70166 62.2203 1.8123 61.1272 1.8123H55.7523C55.7391 1.8123 55.7263 1.81395 55.7132 1.81422C55.4073 0.821094 54.4815 0.097168 53.3894 0.097168H46.3255C44.9848 0.097168 43.8942 1.18791 43.8942 2.52844V9.10666H26.0377V2.52844C26.0377 1.18777 24.9469 0.097168 23.6064 0.097168H16.5426C15.4502 0.097168 14.524 0.821504 14.2185 1.81504C14.2004 1.81449 14.1828 1.8123 14.1646 1.8123H8.82C7.71873 1.8123 6.82281 2.70836 6.82281 3.80949V4.48461H4.50133C3.26484 4.48461 2.25887 5.38053 2.25887 6.48166V9.10652H1.02539C0.458965 9.10652 0 9.56549 0 10.1319C0 10.6983 0.458965 11.1573 1.02539 11.1573H2.25873V14.9846C2.25873 16.0859 3.26471 16.9818 4.50119 16.9818H6.82268V17.657C6.82268 18.7583 7.71873 19.6542 8.81986 19.6542H14.1112V42.903C13.9869 42.8833 13.8604 42.8702 13.7307 42.8702H11.2262C9.88559 42.8702 8.79498 43.9609 8.79498 45.3014V50.5155H1.02539C0.458965 50.5155 0 50.9746 0 51.5409C0 52.1073 0.458965 52.5663 1.02539 52.5663H8.79498V57.7806C8.79498 59.1212 9.88572 60.2119 11.2262 60.2119H13.7307C13.8604 60.2119 13.9869 60.1987 14.1112 60.179V63.315H2.6827C1.699 63.315 0.801855 63.8546 0.343027 64.7203C0.14041 65.0991 0.0334961 65.5287 0.0334961 65.9628V67.2533C0.0334961 68.7141 1.22186 69.9025 2.6827 69.9025H14.2306C14.7971 69.9025 15.256 69.4435 15.256 68.8771C15.256 68.3107 14.7971 67.8517 14.2306 67.8517H2.6827C2.35279 67.8517 2.08428 67.5832 2.08428 67.2533V65.9628C2.08428 65.8633 2.10697 65.7706 2.15332 65.6839C2.25736 65.4877 2.46012 65.3657 2.6827 65.3657H67.3508C67.5734 65.3657 67.7761 65.4877 67.882 65.687C67.9265 65.7706 67.9492 65.8634 67.9492 65.9629V67.2534C67.9492 67.5833 67.6807 67.8518 67.3508 67.8518H18.8362C18.2697 67.8518 17.8108 68.3108 17.8108 68.8772C17.8108 69.4436 18.2697 69.9026 18.8362 69.9026H67.3508C68.8116 69.9026 70 68.7143 70 67.2534V65.9629C70 65.529 69.8931 65.0993 69.6922 64.7236V64.7236ZM56.2011 44.9211H58.7055C58.9153 44.9211 59.086 45.0917 59.086 45.3016V57.7806C59.086 57.9904 58.9153 58.1611 58.7055 58.1611H56.2011C55.9914 58.1611 55.8206 57.9904 55.8206 57.7806V45.3017C55.8206 45.0919 55.9914 44.9211 56.2011 44.9211V44.9211ZM65.6224 6.53553V15.0616H63.1096V6.53553H65.6224ZM61.059 5.49947C61.059 5.50303 61.0585 5.50644 61.0585 5.51C61.0585 5.51355 61.059 5.51697 61.059 5.52053V16.0763C61.059 16.0799 61.0585 16.0833 61.0585 16.0868C61.0585 16.0904 61.059 16.0938 61.059 16.0974V17.6033H55.8208V3.86309H61.059V5.49947ZM45.945 2.52844C45.945 2.31871 46.1158 2.14795 46.3255 2.14795H53.3894C53.5992 2.14795 53.7698 2.31871 53.7698 2.52844V9.10666H50.8829V7.08855C50.8829 6.52213 50.4239 6.06316 49.8575 6.06316C49.2911 6.06316 48.8321 6.52213 48.8321 7.08855V9.1068H45.945V2.52844ZM16.5426 2.14795H23.6064C23.8161 2.14795 23.9869 2.31871 23.9869 2.52844V9.10666H21.0998V7.08855C21.0998 6.52213 20.6408 6.06316 20.0744 6.06316C19.508 6.06316 19.049 6.52213 19.049 7.08855V9.1068H16.1621V2.52844C16.1621 2.31871 16.3327 2.14795 16.5426 2.14795V2.14795ZM4.50119 14.9313C4.41041 14.9313 4.34629 14.9087 4.30951 14.8892V6.5775C4.34643 6.55795 4.41041 6.53539 4.50119 6.53539H6.82268V14.9312H4.50119V14.9313ZM14.111 17.6037H8.87346V3.86309H14.111V17.6037ZM13.7308 58.1612H11.2262C11.0165 58.1612 10.8458 57.9906 10.8458 57.7807V45.3017C10.8458 45.0919 11.0165 44.9212 11.2262 44.9212H13.7307C13.9404 44.9212 14.1112 45.0919 14.1112 45.3017V57.7807C14.1113 57.9906 13.9405 58.1612 13.7308 58.1612ZM16.1621 11.1574H19.049V13.1757C19.049 13.7421 19.508 14.2011 20.0744 14.2011C20.6408 14.2011 21.0998 13.7421 21.0998 13.1757V11.1574H23.9869V29.6132C23.9869 30.1797 24.4459 30.6386 25.0123 30.6386C25.5787 30.6386 26.0377 30.1797 26.0377 29.6132V11.1574H43.8941V63.3151H26.0377V34.191C26.0377 33.6246 25.5787 33.1656 25.0123 33.1656C24.4459 33.1656 23.9869 33.6246 23.9869 34.191V63.3152H16.1621V11.1574Z" fill="#191721"/>
</g>
<defs>
<clipPath id="clip0">
<rect width="70" height="70" fill="white"/>
</clipPath>
</defs>
</svg>
