<svg width="70" height="70" viewBox="0 0 70 70" fill="none" xmlns="http://www.w3.org/2000/svg">
<g clip-path="url(#clip0)">
<path d="M17.0077 28.3011C16.2765 28.3011 15.6837 28.8939 15.6837 29.6251C15.6837 30.3562 16.2765 30.9491 17.0077 30.9491C17.7389 30.9491 18.3317 30.3564 18.3317 29.6251C18.3317 28.8939 17.7389 28.3011 17.0077 28.3011V28.3011Z" fill="#05051A"/>
<path d="M58.7675 29.6251C58.7675 30.3564 59.3604 30.9491 60.0915 30.9491C60.8227 30.9491 61.4155 30.3564 61.4155 29.6251C61.4155 28.8939 60.8227 28.3011 60.0915 28.3011C59.3604 28.3011 58.7675 28.8939 58.7675 29.6251Z" fill="#05051A"/>
<path d="M38.6979 28.3011C37.9667 28.3011 37.3739 28.8939 37.3739 29.6251C37.3739 30.3562 37.9667 30.9491 38.6979 30.9491C39.4291 30.9491 40.0219 30.3564 40.0219 29.6251C40.0219 28.8939 39.4291 28.3011 38.6979 28.3011Z" fill="#05051A"/>
<path d="M64.6906 0H58.741C58.1748 0 57.7157 0.458965 57.7157 1.02539C57.7157 1.59182 58.1748 2.05078 58.741 2.05078H64.6906C65.6821 2.05078 66.4889 2.85742 66.4889 3.84891V34.3227C66.4889 34.8891 66.948 35.3481 67.5143 35.3481C68.0806 35.3481 68.5397 34.8891 68.5397 34.3227V3.84891C68.5397 1.72662 66.8129 0 64.6906 0V0Z" fill="#05051A"/>
<path d="M67.5144 37.9088C66.9481 37.9088 66.489 38.3678 66.489 38.9342V63.2308C66.489 64.2223 65.6824 65.0289 64.6908 65.0289H58.5865V59.2102H60.1249C62.5477 59.2102 64.5189 57.2391 64.5189 54.8162C64.5189 52.3934 62.5478 50.4223 60.1249 50.4223H46.7868V2.05078H54.1266C54.6929 2.05078 55.152 1.59182 55.152 1.02539C55.152 0.458965 54.6929 0 54.1266 0H5.30889C3.1866 0 1.45985 1.72662 1.45985 3.84891V36.4931C1.45985 37.0595 1.91895 37.5185 2.48524 37.5185C3.05153 37.5185 3.51063 37.0595 3.51063 36.4931V3.84891C3.51063 2.85742 4.31741 2.05078 5.30889 2.05078H23.0979V40.4072H22.4484C21.506 40.4072 20.7394 41.1738 20.7394 42.1162V45.4148H16.8269V42.1162C16.8269 41.1738 16.0603 40.4072 15.1179 40.4072H11.6405C10.6981 40.4072 9.93149 41.1738 9.93149 42.1162V50.4254C7.56229 50.4875 5.65383 52.4326 5.65383 54.8163C5.65383 57.2392 7.6249 59.2103 10.0477 59.2103H10.4267V65.029H5.30889C4.31741 65.029 3.51063 64.2224 3.51063 63.2309V41.1085C3.51063 40.542 3.05153 40.0831 2.48524 40.0831C1.91895 40.0831 1.45985 40.542 1.45985 41.1085V63.2309C1.45985 65.3532 3.18647 67.0798 5.30889 67.0798H10.4267V68.9746C10.4267 69.541 10.8858 70 11.4521 70C12.0184 70 12.4775 69.541 12.4775 68.9746V67.0798H56.5358V68.9746C56.5358 69.541 56.9949 70 57.5612 70C58.1274 70 58.5865 69.541 58.5865 68.9746V67.0798H64.6908C66.8131 67.0798 68.5398 65.3532 68.5398 63.2309V38.9342C68.5398 38.3679 68.0807 37.9088 67.5144 37.9088V37.9088ZM25.1487 2.05078H44.736V50.4226H42.569V47.2868C42.569 46.3444 41.8024 45.5778 40.86 45.5778H37.5614V41.6653H40.86C41.8024 41.6653 42.569 40.8986 42.569 39.9563V36.4788C42.569 35.5363 41.8024 34.7698 40.86 34.7698H32.2119C31.2695 34.7698 30.5029 35.5363 30.5029 36.4788V39.9563C30.5029 40.8986 31.2695 41.6653 32.2119 41.6653H35.5105V45.5778H32.2119C31.2695 45.5778 30.5029 46.3444 30.5029 47.2868V50.4226H27.6349V42.1162C27.6349 41.1738 26.8683 40.4072 25.9259 40.4072H25.1487V2.05078ZM40.5181 47.6286V50.4226H32.5535V47.6286H40.5181ZM32.5535 39.6145V36.8205H40.5181V39.6145H32.5535ZM22.7902 42.458H25.5841V50.4226H22.7902V42.458ZM20.7394 47.4656V50.4226H16.8269V47.4656H20.7394ZM11.9823 42.458H14.7763V50.4226H11.9823V42.458ZM60.1249 52.4733C61.4169 52.4733 62.4681 53.5244 62.4681 54.8164C62.4681 56.1084 61.417 57.1596 60.1249 57.1596H10.0477C8.75571 57.1596 7.70461 56.1086 7.70461 54.8164C7.70461 53.5244 8.75571 52.4733 10.0477 52.4733H60.1249ZM44.7358 59.2103V65.029H25.1487V59.2103H44.7358ZM12.4775 59.2103H23.0979V65.029H12.4775V59.2103ZM46.7866 65.029V59.2103H56.5358V65.029H46.7866Z" fill="#05051A"/>
<path d="M61.6174 11.3284H51.6665C51.1002 11.3284 50.6411 11.7873 50.6411 12.3538C50.6411 12.9202 51.1002 13.3792 51.6665 13.3792H61.6174C62.1837 13.3792 62.6428 12.9202 62.6428 12.3538C62.6428 11.7873 62.1837 11.3284 61.6174 11.3284Z" fill="#05051A"/>
<path d="M61.6174 16.5821H51.6665C51.1002 16.5821 50.6411 17.0411 50.6411 17.6075C50.6411 18.1739 51.1002 18.6329 51.6665 18.6329H61.6174C62.1837 18.6329 62.6428 18.1739 62.6428 17.6075C62.6428 17.0412 62.1837 16.5821 61.6174 16.5821Z" fill="#05051A"/>
<path d="M62.6428 22.8611C62.6428 22.2947 62.1837 21.8358 61.6174 21.8358H51.6665C51.1002 21.8358 50.6411 22.2947 50.6411 22.8611C50.6411 23.4276 51.1002 23.8865 51.6665 23.8865H61.6174C62.1837 23.8865 62.6428 23.4274 62.6428 22.8611Z" fill="#05051A"/>
<path d="M29.9954 13.3792H39.9465C40.5128 13.3792 40.9719 12.9202 40.9719 12.3538C40.9719 11.7873 40.5128 11.3284 39.9465 11.3284H29.9954C29.4291 11.3284 28.97 11.7873 28.97 12.3538C28.97 12.9202 29.429 13.3792 29.9954 13.3792Z" fill="#05051A"/>
<path d="M29.9954 18.6329H39.9465C40.5128 18.6329 40.9719 18.1739 40.9719 17.6075C40.9719 17.0411 40.5128 16.5821 39.9465 16.5821H29.9954C29.4291 16.5821 28.97 17.0411 28.97 17.6075C28.97 18.1739 29.429 18.6329 29.9954 18.6329Z" fill="#05051A"/>
<path d="M29.9954 23.8865H39.9465C40.5128 23.8865 40.9719 23.4276 40.9719 22.8611C40.9719 22.2947 40.5128 21.8358 39.9465 21.8358H29.9954C29.4291 21.8358 28.97 22.2947 28.97 22.8611C28.97 23.4274 29.429 23.8865 29.9954 23.8865Z" fill="#05051A"/>
<path d="M8.28889 13.3792H18.2398C18.8061 13.3792 19.2652 12.9202 19.2652 12.3538C19.2652 11.7873 18.8061 11.3284 18.2398 11.3284H8.28889C7.7226 11.3284 7.26349 11.7873 7.26349 12.3538C7.26349 12.9202 7.7226 13.3792 8.28889 13.3792V13.3792Z" fill="#05051A"/>
<path d="M8.28889 18.6329H18.2398C18.8061 18.6329 19.2652 18.1739 19.2652 17.6075C19.2652 17.0411 18.8061 16.5821 18.2398 16.5821H8.28889C7.7226 16.5821 7.26349 17.0411 7.26349 17.6075C7.26349 18.1739 7.7226 18.6329 8.28889 18.6329V18.6329Z" fill="#05051A"/>
<path d="M8.28889 23.8865H18.2398C18.8061 23.8865 19.2652 23.4276 19.2652 22.8611C19.2652 22.2947 18.8061 21.8358 18.2398 21.8358H8.28889C7.7226 21.8358 7.26349 22.2947 7.26349 22.8611C7.26349 23.4274 7.7226 23.8865 8.28889 23.8865V23.8865Z" fill="#05051A"/>
</g>
<defs>
<clipPath id="clip0">
<rect width="70" height="70" fill="white"/>
</clipPath>
</defs>
</svg>
