<svg width="178" height="75" viewBox="0 0 178 75" fill="none" xmlns="http://www.w3.org/2000/svg">
<path fill-rule="evenodd" clip-rule="evenodd" d="M169.98 13.867H169.535L170.012 15.45V15.6399V15.8932H171.794H174.786V13.962H171.954V6.20557H170.012V13.867H169.98Z" fill="white"/>
<path fill-rule="evenodd" clip-rule="evenodd" d="M163.36 2.50098H165.461V6.20507H167.529V2.50098H169.439V12.1886H167.466V8.4212H165.333V12.1886H163.36V8.4212C163.296 7.66138 163.01 7.31313 162.914 6.52166H163.36V2.50098V2.50098Z" fill="white"/>
<path fill-rule="evenodd" clip-rule="evenodd" d="M159.382 7.88307V8.76952L159.445 8.80118C159.477 8.73786 159.477 8.73786 159.477 8.64289C159.509 8.51625 159.509 8.51625 159.573 8.51625C159.573 8.67455 159.541 8.92782 159.604 9.02279C159.668 8.99114 159.668 8.95948 159.7 8.89616C159.732 8.8645 159.668 8.89616 159.732 8.8645C159.732 8.99114 159.7 9.18109 159.795 9.27607C159.827 9.21275 159.827 9.08611 159.827 8.99114C159.827 8.76952 159.859 8.89616 159.891 8.73786C160.018 8.42128 160.114 7.40819 160.241 7.21824C160.273 7.24989 160.305 7.24989 160.368 7.28155C160.432 7.21824 160.4 7.18658 160.496 7.15492C160.527 7.31321 160.464 7.6298 160.559 7.72478C160.623 7.69312 160.623 7.66146 160.623 7.59814L160.75 7.31321C160.782 7.28155 160.782 7.18658 160.782 7.15492C160.846 7.0916 160.814 7.12326 160.846 7.0916C160.909 7.02828 161.037 6.71169 161.068 6.64838C161.196 6.3951 161.355 6.14183 161.419 5.98354C161.482 5.82524 161.609 5.66695 161.737 5.50865L162.151 4.93879C162.278 4.7805 162.946 3.89405 163.073 3.89405C163.042 4.02068 162.882 4.11566 162.882 4.30561C164.315 2.56437 166.479 1.45631 168.898 1.45631C173.194 1.45631 176.663 4.93879 176.663 9.24441C176.663 11.2706 175.867 13.1385 174.626 14.5314C174.499 14.6897 174.372 14.8164 174.244 14.943C174.117 15.0697 173.703 15.4812 173.608 15.5445C173.576 15.5762 173.544 15.5762 173.512 15.6079C173.289 15.7661 173.098 15.9244 172.908 16.0511L171.635 16.7159C171.571 16.7476 171.571 16.7476 171.507 16.7476C171.348 16.8109 171.157 16.8742 170.998 16.9375L170.457 17.0958C170.393 17.1275 170.393 17.1275 170.298 17.1275L169.248 17.2858C168.898 17.3174 168.261 17.3491 167.911 17.3174C167.72 17.2858 167.465 17.2858 167.274 17.2541C167.179 17.2225 167.083 17.2225 166.988 17.1908L166.415 17.0642L165.397 16.7159C165.174 16.6526 164.824 16.3993 164.665 16.3993C164.76 16.4626 164.919 16.526 165.015 16.5893C165.047 16.6209 165.047 16.6209 165.078 16.6209L165.524 16.8426C166.033 17.0642 166.702 17.2541 167.243 17.3174C167.943 17.4441 168.166 17.4441 168.898 17.4441C169.184 17.4441 169.47 17.4124 169.757 17.3808C169.98 17.3491 169.98 17.3174 170.107 17.3174C170.584 17.2541 171.093 17.1275 171.539 16.9375C171.635 16.9059 171.73 16.8742 171.825 16.8109C171.889 16.7792 171.921 16.7792 171.985 16.7476C172.016 16.7159 172.112 16.7159 172.144 16.6843C172.176 16.6526 172.176 16.6526 172.207 16.6526L172.748 16.3993C172.971 16.2727 173.194 16.0827 173.417 15.9561L173.576 15.8295C173.703 15.7661 173.767 15.6712 173.894 15.5762C173.926 15.5445 173.958 15.5129 174.021 15.4812C174.212 15.2913 174.626 14.943 174.817 14.7214C174.849 14.6581 174.849 14.6264 174.944 14.5948C174.913 14.7214 174.722 14.9114 174.626 15.0063L173.99 15.6395C173.926 15.6712 173.894 15.7028 173.83 15.7661C173.767 15.7978 173.735 15.8295 173.671 15.8928L173.13 16.3043C173.098 16.336 173.098 16.336 173.098 16.336L172.844 16.4943C172.717 16.5576 172.589 16.6526 172.494 16.7159C172.335 16.8109 172.048 16.9375 171.889 16.9692L171.125 17.2225C171.062 17.2541 171.062 17.2541 171.03 17.2541C170.775 17.3174 170.075 17.4757 169.82 17.4757C169.47 17.5074 169.12 17.5074 168.738 17.5074C168.547 17.539 168.388 17.539 168.166 17.539C168.07 17.539 168.038 17.5074 167.911 17.5074C167.72 17.4757 167.338 17.4441 167.147 17.3808C166.988 17.3491 166.829 17.3174 166.702 17.2541C166.415 17.1908 166.097 17.0958 165.81 17.0008L165.206 16.7476C164.887 16.6209 164.283 16.241 163.933 16.0194L163.36 15.5762C163.328 15.5445 163.296 15.5445 163.296 15.5129C163.264 15.4812 163.233 15.4812 163.233 15.4496C163.073 15.3229 162.882 15.0697 162.723 14.9747C162.66 14.9114 162.532 14.7214 162.437 14.6897C162.469 14.7531 162.532 14.8164 162.564 14.8797C162.819 15.133 163.073 15.4179 163.36 15.6395C163.392 15.6712 163.392 15.6712 163.455 15.7028L163.901 16.0194C163.933 16.0511 163.933 16.0511 163.933 16.0511C164.124 16.2094 164.346 16.3043 164.537 16.4626C164.665 16.5576 165.142 16.8109 165.238 16.8426C165.301 16.8742 165.365 16.9059 165.429 16.9375C165.46 16.9692 165.524 16.9692 165.556 16.9692C165.588 17.0008 165.588 17.0008 165.651 17.0325L166.224 17.2541C166.288 17.2858 166.288 17.2858 166.351 17.2858C166.383 17.2858 166.383 17.3174 166.479 17.3174L167.497 17.539C167.561 17.5707 167.561 17.5707 167.624 17.5707C167.784 17.6024 168.006 17.634 168.166 17.634C168.325 17.634 169.311 17.634 169.343 17.6657C169.279 17.6973 168.738 17.729 168.579 17.729C168.325 17.729 168.006 17.7607 167.784 17.6973C167.593 17.6657 167.274 17.634 167.083 17.6024C166.829 17.539 166.097 17.3491 165.81 17.2225C165.715 17.1908 165.619 17.1275 165.524 17.0958C165.46 17.0642 165.46 17.0642 165.365 17.0325C165.333 17.0008 165.301 17.0008 165.301 17.0008C165.269 17.0008 165.269 17.0008 165.269 17.0008L165.238 16.9692C164.888 16.8109 164.633 16.6526 164.315 16.4626C164.251 16.431 164.251 16.431 164.187 16.3993L163.71 16.0511C163.424 15.8611 163.169 15.6079 162.914 15.3862L162.819 15.2913C162.755 15.1963 162.692 15.133 162.628 15.0697C162.405 14.848 162.246 14.6264 162.055 14.4048L161.705 13.9299C161.578 13.7083 161.419 13.4867 161.323 13.2651C161.291 13.2018 161.291 13.2334 161.259 13.1385L161.132 12.8852C161.1 12.9168 161.068 12.8535 161.132 13.0118C161.259 13.2967 161.419 13.5817 161.578 13.835L161.864 14.2782C161.896 14.3415 161.896 14.3098 161.928 14.3732C161.864 14.3415 161.8 14.2465 161.769 14.2149L161.641 14.0249C161.514 13.8033 161.196 13.2018 161.164 13.1701L161.132 13.1385C161.1 13.0751 161.1 12.9802 161.037 12.9168C161.005 12.8852 161.037 12.9168 160.973 12.8852C160.973 13.1068 161.068 13.2018 161.132 13.3284L161.228 13.4867C161.259 13.5184 161.228 13.4867 161.259 13.5184L161.419 13.835C161.45 13.9616 161.546 14.0882 161.609 14.1832C161.737 14.4048 162.214 15.0063 162.405 15.2279L162.851 15.6712C163.01 15.8295 163.169 15.9878 163.36 16.1144L163.678 16.3677C163.71 16.3677 163.71 16.3677 163.71 16.3677L163.837 16.4626C163.965 16.5576 164.092 16.6526 164.219 16.7159C164.251 16.7476 164.251 16.7476 164.283 16.7476C164.346 16.7792 164.442 16.8109 164.474 16.9059C164.537 16.9692 164.633 17.0008 164.728 17.0642C164.919 17.2225 165.174 17.2858 165.397 17.3808C165.397 17.3808 165.397 17.3808 165.429 17.3808L166.351 17.729C166.415 17.7607 166.447 17.7607 166.511 17.7607C166.638 17.7923 166.702 17.824 166.829 17.824L167.115 17.8873C167.179 17.8873 167.211 17.919 167.274 17.919C167.465 17.9506 167.943 17.9823 168.07 18.0772C167.943 18.1406 167.179 17.9823 167.083 17.9506L166.638 17.824C166.479 17.7923 166.351 17.7607 166.192 17.6973C165.906 17.634 165.524 17.4441 165.269 17.3491C165.238 17.3491 165.238 17.3174 165.206 17.3174C165.206 17.3174 165.206 17.3174 165.174 17.3174L164.697 17.0642C164.665 17.0325 164.633 17.0325 164.601 17.0325C164.474 16.9692 164.346 16.8742 164.251 16.8109L163.201 16.0511C163.105 15.9561 163.137 16.0194 162.978 15.8611C162.946 15.8295 162.882 15.7345 162.819 15.7028C162.787 15.6712 162.787 15.6712 162.755 15.6395L162.564 15.4179L162.501 15.3546C162.373 15.1963 162.469 15.3546 162.341 15.2279C162.278 15.133 162.246 15.1646 162.182 15.1013C162.151 15.0697 162.214 15.0697 162.119 15.038C162.119 15.0697 162.119 15.0697 162.119 15.0697L162.087 15.1013C162.087 15.1013 162.087 15.133 162.087 15.1646C162.087 15.2913 162.151 15.2596 162.214 15.3546C162.246 15.4179 162.278 15.4496 162.31 15.5129C162.437 15.6079 162.564 15.7345 162.692 15.8611C162.851 16.0194 163.01 16.1777 163.201 16.3043L163.71 16.7159C163.837 16.7792 163.869 16.8426 163.996 16.9059C164.442 17.2225 164.887 17.4757 165.365 17.6657L165.683 17.824C165.747 17.8556 165.81 17.8556 165.842 17.8873C165.906 17.919 165.97 17.919 166.033 17.9506L166.065 17.9823H166.097C166.192 18.0139 166.479 18.0772 166.542 18.1406L166.511 18.1722C166.447 18.2039 166.065 18.0456 165.97 18.0456C165.906 18.0139 165.874 18.0139 165.81 17.9823L165.269 17.7607C165.11 17.6973 164.951 17.634 164.792 17.539C164.601 17.4441 164.378 17.3174 164.187 17.2225L163.742 16.9375C163.678 16.9059 163.614 16.8742 163.583 16.8742L163.169 16.5576C162.787 16.241 162.405 15.8928 162.087 15.5445C161.864 15.2913 161.641 15.038 161.45 14.7847C161.164 14.4048 160.75 13.7716 160.559 13.3284C160.496 13.2018 160.432 13.1068 160.4 13.0118L160.114 12.2203C159.955 11.8088 159.795 11.049 159.732 10.6057C159.7 10.5108 159.7 10.0675 159.636 10.0042C159.604 10.0042 159.604 10.0042 159.604 10.0359V10.2575C159.604 10.5741 159.764 11.4922 159.859 11.7455C159.891 11.8088 159.859 11.7455 159.891 11.8404C160.082 12.6003 160.432 13.4234 160.846 14.0882L161.323 14.848C161.387 14.9114 161.387 14.9747 161.45 15.0063L161.832 15.4496C161.928 15.5762 162.087 15.7661 162.182 15.8611C162.373 16.0194 162.532 16.2094 162.755 16.3677L163.042 16.6209C163.392 16.9375 163.487 16.9375 163.805 17.1591C163.965 17.2858 164.156 17.3808 164.283 17.4757C164.474 17.6024 165.556 18.0772 165.747 18.1089C166.033 18.2039 166.256 18.2672 166.574 18.3622C166.638 18.3938 166.733 18.3938 166.797 18.3938C166.861 18.4255 166.797 18.4255 166.861 18.4255C167.211 18.5205 167.561 18.5521 167.879 18.5838C168.484 18.6471 169.566 18.6155 170.139 18.5205L170.33 18.4888C170.775 18.4255 171.189 18.2989 171.603 18.1722C171.857 18.1089 172.144 17.9823 172.366 17.8556C172.844 17.6657 173.321 17.4124 173.735 17.1275C173.767 17.0958 173.862 17.0642 173.894 17.0008C173.958 16.9692 173.99 16.9375 174.053 16.9059L175.167 15.9244C175.231 15.8611 175.263 15.8611 175.294 15.7978L175.804 15.2596C175.867 15.133 175.995 15.0063 176.09 14.8797L176.567 14.1515C176.599 14.1199 176.599 14.0882 176.631 14.0566C176.663 14.0249 176.663 14.0249 176.695 13.9932C176.79 13.835 176.854 13.645 176.949 13.455C177.172 13.0435 177.331 12.6003 177.49 12.157L177.554 11.8404C177.586 11.8088 177.586 11.7771 177.586 11.7138C177.586 11.6505 177.618 11.5555 177.65 11.5239C177.681 11.5555 177.65 11.5239 177.681 11.5555C177.681 11.6188 177.65 11.7138 177.65 11.7771C177.618 11.8404 177.618 11.9038 177.586 11.9987L177.395 12.6319C177.331 12.8535 177.204 13.1701 177.108 13.3601C176.981 13.5817 176.79 14.0882 176.663 14.2149L176.504 14.4681C176.472 14.5314 176.377 14.5948 176.377 14.6897C176.44 14.6897 176.44 14.6264 176.472 14.5948L176.599 14.3732C176.599 14.3732 176.599 14.3732 176.599 14.3415L176.981 13.6767C177.14 13.3601 177.65 12.157 177.681 11.7771C177.681 11.7138 177.713 11.6505 177.713 11.6188C177.84 11.1756 177.872 10.6691 177.904 10.2258C177.904 10.1625 177.936 9.9409 177.968 9.87759V8.89616C177.904 8.83284 177.904 8.54791 177.904 8.38962C177.872 8.3263 177.904 8.3263 177.872 8.26298C177.84 8.23132 177.84 8.23132 177.84 8.13635C177.809 7.94639 177.777 7.85141 177.777 7.66146L177.618 6.99662C177.586 6.86999 177.554 6.68003 177.49 6.5534C177.459 6.49008 177.427 6.3951 177.427 6.33179C177.299 6.0152 177.14 5.66695 177.045 5.38202C176.981 5.16041 176.695 4.65386 176.567 4.43225C176.536 4.36893 176.504 4.33727 176.472 4.27396L175.899 3.45082L175.263 2.75433C175.135 2.62769 175.072 2.56437 174.976 2.4694L174.722 2.12115C174.34 1.7729 173.862 1.45631 173.417 1.2347C173.353 1.20304 173.289 1.17138 173.226 1.13972C172.78 0.949768 172.526 0.823132 172.08 0.664837L171.475 0.443225C171.253 0.379907 171.221 0.379907 171.03 0.316589C170.648 0.158295 169.502 0 169.12 0C168.452 0 168.166 0 167.529 0.0633179C167.434 0.0633179 167.402 0.0949768 167.338 0.126636C167.147 0.158295 166.956 0.126636 166.797 0.189954L166.733 0.221613C166.574 0.253271 166.32 0.28493 166.161 0.348248L165.365 0.633179C165.301 0.664838 165.301 0.664838 165.238 0.696496C165.206 0.696496 165.174 0.696496 165.142 0.728155C164.951 0.791473 164.378 1.0764 164.187 1.17138C163.901 1.32968 163.583 1.51963 163.328 1.70958L162.723 2.18447L161.705 3.10258C161.609 3.19755 161.514 3.29253 161.45 3.35585C161.323 3.48248 161.291 3.57746 161.259 3.60912C161.1 3.83073 161.005 3.92571 160.814 4.14732C160.782 4.17898 160.782 4.21064 160.75 4.21064L160.623 4.36893C160.591 4.40059 160.591 4.43225 160.591 4.46391L160.018 5.57197C159.955 5.73027 159.827 5.92022 159.764 6.14183C159.732 6.30013 159.668 6.45842 159.636 6.58506C159.541 6.86999 159.477 7.15492 159.445 7.43985C159.414 7.53483 159.414 7.59814 159.414 7.69312L159.382 7.85141C159.414 7.88307 159.414 7.88307 159.382 7.88307Z" fill="#FFCD2A"/>
<path fill-rule="evenodd" clip-rule="evenodd" d="M47.5156 38.2757H41.1187V27.0685C38.8272 27.0685 35.9948 27.0685 33.4806 26.8785V38.3074H26.9245V27.0685C26.7017 24.4724 26.3835 21.7814 26.0334 19.1854L27.2746 19.217C27.6247 19.217 26.5744 7.62988 37.236 7.62988C47.4838 7.88315 47.1337 14.2783 47.3565 21.9081C47.3246 28.3032 47.5156 34.8882 47.5156 38.2757ZM40.9277 19.0271C40.9277 17.2542 41.0868 14.7531 37.5542 14.7531C34.1807 14.7531 34.0216 17.2542 34.0216 19.0271H40.9277Z" fill="white"/>
<path fill-rule="evenodd" clip-rule="evenodd" d="M140.445 9.05461V38.3075H146.651V31.1525L151.966 38.2758H159.413L153.207 28.9997C153.207 28.9997 159.063 25.8022 159.063 19.5337C159.063 14.0251 154.449 9.02295 149.484 9.02295H140.445V9.05461ZM151.966 19.2171C151.966 21.8765 149.484 22.9529 146.301 22.9529V15.1015C149.834 15.1015 151.966 16.5261 151.966 19.2171Z" fill="white"/>
<path fill-rule="evenodd" clip-rule="evenodd" d="M133.444 9.21289H119.6V20.4518H118.168L119.441 25.4539V38.2758H133.444V32.7671H125.106V26.8786H133.985V20.8001H125.456V15.2914H133.444V9.21289Z" fill="white"/>
<path fill-rule="evenodd" clip-rule="evenodd" d="M53.1806 38.2754L57.0951 8.86426H61.5189L67.3748 20.7997L73.9308 8.86426H78.0363L81.2189 38.2754H74.8219L73.2307 23.8389L67.3748 33.4632L61.3598 23.8389L58.8455 38.2754H53.1806Z" fill="white"/>
<path fill-rule="evenodd" clip-rule="evenodd" d="M86.5334 38.2754L90.607 8.86426H95.0308L100.887 20.7997L107.284 8.86426H111.389L114.731 38.2754H108.175L106.583 23.8389L100.887 33.4632L94.6807 23.8389L92.1983 38.2754H86.5334Z" fill="white"/>
<path fill-rule="evenodd" clip-rule="evenodd" d="M1.43215 8.32568H8.17915V19.2164H14.9262V8.32568H21.1321V38.4333H14.7352V27.416H7.82907V38.4333H1.43215V26.8462C1.20937 24.3451 0.35008 23.2687 0 20.736H1.43215V8.32568Z" fill="white"/>
<path fill-rule="evenodd" clip-rule="evenodd" d="M9.77053 67.7186V66.5155H1.43225V67.7186H4.99671V74.9052H6.17425V67.7186H9.77053ZM136.563 67.7186V66.5155H128.225V67.7186H131.789V74.9052H132.999V67.7186H136.563ZM21.0049 70.188C20.9731 70.8528 20.4639 71.391 19.7956 71.391L15.0217 71.3277L15.0854 67.7502L19.8274 67.8136C20.4957 67.8136 21.0049 68.3518 21.0049 69.0166V70.188ZM22.1188 75.0001H21.2595L18.9044 72.5941L14.9899 72.5307L14.9581 74.9368L13.7805 74.9052L13.876 66.5472L19.8274 66.6105C21.0686 66.6105 22.1825 67.6869 22.1825 69.0166L22.1506 70.2196C22.1506 71.2327 21.4505 72.1508 20.4639 72.4674L22.087 74.1453L22.1188 75.0001ZM158.236 70.188C158.236 70.8528 157.695 71.391 157.027 71.391L152.285 71.3277L152.317 67.7502L157.059 67.8136C157.727 67.8136 158.236 68.3518 158.236 69.0166V70.188ZM159.35 75.0001H158.491L156.136 72.5941L152.221 72.5307L152.19 74.9368L151.012 74.9052L151.108 66.5472L157.059 66.6105C158.3 66.6105 159.414 67.6869 159.414 69.0166L159.382 70.2196C159.382 71.2327 158.714 72.1508 157.695 72.4674L159.319 74.1453L159.35 75.0001ZM32.5258 67.7819C33.1941 67.7819 33.7351 68.3201 33.7351 68.9849L33.767 71.3594L27.8156 71.391L27.7838 69.0166C27.7838 68.3518 28.3248 67.8136 28.9613 67.8136L32.5258 67.7819ZM34.9127 68.9533C34.8808 67.6236 33.7988 66.5789 32.5258 66.5789L28.9613 66.6105C27.6246 66.6105 26.6062 67.7502 26.6062 69.0166L26.638 75.0001L27.8474 74.9685L27.8156 72.5941L33.7351 72.5624L33.767 74.9368H34.9445L34.9127 68.9533ZM38.9227 74.8418H40.1321L40.1002 66.4839H38.9227V74.8418ZM56.2994 74.8418H57.477V66.4839H56.2994V74.8418ZM52.4167 66.4839H51.2392L51.271 72.8157L45.2878 66.4839H44.1102L44.1421 74.8735H45.3196L45.2878 68.4467L51.2392 74.8418H52.4485L52.4167 66.4839ZM69.3797 66.4839H68.2021L68.234 72.8157L62.2508 66.4839H61.0732L61.1051 74.8735H62.2826L62.2508 68.4467L68.2021 74.8418H69.4115L69.3797 66.4839ZM125.393 66.4839H124.215L124.247 72.8157L118.264 66.4839H117.054L117.086 74.8735H118.264L118.232 68.4467L124.215 74.8418H125.393V66.4839ZM76.4131 71.3277L79.9776 71.3594L79.9458 72.5624C79.9458 73.1956 79.4047 73.7654 78.7364 73.7654L75.1719 73.7338C74.5036 73.7338 73.9626 73.1956 73.9944 72.5307L74.0262 68.9533C74.0262 68.2884 74.5672 67.7502 75.2356 67.7502L78.8 67.7819C79.4365 67.7819 79.9776 68.3201 79.9776 68.9849H81.1551C81.1233 67.6553 80.0731 66.5789 78.8 66.5789L75.2356 66.5472C73.8989 66.5472 72.8487 67.6553 72.8487 68.9216L72.8168 72.4991C72.8168 73.8604 73.8989 74.9052 75.1719 74.9052L78.7364 74.9368C80.0731 74.9368 81.1233 73.8288 81.1551 72.5624V70.1563L76.4131 70.1247V71.3277V71.3277ZM95.7312 66.5155C94.3945 66.5472 93.3761 67.6236 93.3761 68.9216L93.4079 72.4991C93.4079 73.8604 94.5218 74.8735 95.7949 74.8735L99.3593 74.8418C100.696 74.8102 101.714 73.7021 101.714 72.4358L100.505 72.4674C100.537 73.1006 99.9958 73.6705 99.3275 73.6705L95.763 73.7021C95.0947 73.7338 94.5537 73.1639 94.5537 72.5307L94.5218 68.9533C94.5218 68.2884 95.0629 67.7502 95.6994 67.7502L99.2638 67.7186C99.9322 67.7186 100.441 68.2568 100.473 68.9216L101.651 68.89C101.587 67.5603 100.537 66.5155 99.232 66.5155H95.7312ZM106.616 67.6869L113.744 67.7186V66.4839H105.438L105.406 74.8418L113.713 74.8735V73.6705H106.584L106.616 71.2644L112.535 71.296V70.093H106.616V67.6869ZM140.701 67.6869L147.83 67.7186V66.4839H139.523V74.8418L147.83 74.8735V73.6705H140.701V71.2644L146.652 71.296V70.093H140.701V67.6869Z" fill="white"/>
<path d="M159.414 44.1323H1.43225V57.0808H159.414V44.1323Z" fill="#FFCD2A"/>
<path d="M8.05206 55.0233V46.2538H10.1844V53.3771H17.0269V55.0233H8.05206ZM33.1942 55.0233V46.2538H42.5827V47.8051H35.3265V49.7046H39.5593V51.2243H35.3265V53.3771H42.6782V55.0233H33.1942V55.0233ZM67.8522 47.8684H61.2006V53.3454H67.8522V51.4776H64.3832V49.9263H69.9527V52.9339C69.9527 53.7253 69.7935 54.2635 69.4753 54.5801C69.157 54.8651 68.5523 55.0233 67.6612 55.0233H61.3279C60.4368 55.0233 59.8321 54.8651 59.5457 54.5801C59.2275 54.2952 59.0683 53.757 59.0683 52.9339V48.3117C59.0683 47.5202 59.2275 46.982 59.5457 46.6654C59.8321 46.3805 60.4368 46.2222 61.3279 46.2222H67.6612C68.5523 46.2222 69.157 46.3805 69.4753 46.6654C69.7617 46.9503 69.9527 47.4569 69.9527 48.2167V48.4383H67.8522V47.8684ZM87.5522 55.0233V46.2538H96.9407V47.8051H89.7163V49.7046H93.8854V51.2243H89.6845V53.3771H97.0043V55.0233H87.5522V55.0233ZM113.84 55.0233V46.2538H115.304L122.719 52.0791V46.2538H124.629V55.0233H123.165L115.781 49.1031V55.0233H113.84ZM144.456 53.3771H147.225C148.721 53.3771 149.739 53.1555 150.376 52.7122C150.98 52.269 151.267 51.5409 151.267 50.4961C151.267 49.578 151.012 48.9448 150.535 48.5016C150.026 48.0584 149.262 47.8368 148.243 47.8368H144.456V53.3771ZM142.292 55.0233V46.2538H148.18C149.866 46.2538 151.171 46.6337 152.062 47.3935C152.954 48.1534 153.431 49.2298 153.431 50.6228C153.431 52.1107 152.954 53.2188 151.999 53.9469C151.044 54.6751 149.58 55.055 147.671 55.055H142.292V55.0233Z" fill="#141515"/>
</svg>
