<svg width="61" height="54" viewBox="0 0 61 54" fill="none" xmlns="http://www.w3.org/2000/svg">
<rect width="61" height="54" rx="5" fill="#100F14"/>
<path fill-rule="evenodd" clip-rule="evenodd" d="M42.5056 14.5619C40.9463 12.9923 39.091 11.7478 37.0472 10.9003C35.0035 10.0529 32.8119 9.61943 30.5994 9.62505C21.3219 9.62505 13.7694 17.1757 13.7656 26.4569C13.7656 29.4232 14.54 32.3182 16.0119 34.8719L13.625 43.5926L22.5481 41.2507C25.0164 42.5943 27.7816 43.2988 30.5919 43.3001H30.5994C39.875 43.3001 47.4275 35.7494 47.4313 26.4682C47.4376 24.2566 47.0056 22.0657 46.1601 20.022C45.3147 17.9784 44.0726 16.1226 42.5056 14.5619V14.5619ZM30.5994 40.4594H30.5938C28.0878 40.4597 25.6281 39.7855 23.4725 38.5076L22.9625 38.2038L17.6675 39.5932L19.0794 34.4313L18.7475 33.9026C17.3465 31.6721 16.6048 29.0909 16.6081 26.4569C16.6119 18.7432 22.8875 12.4676 30.605 12.4676C32.443 12.4635 34.2635 12.824 35.9612 13.5282C37.6589 14.2323 39.2001 15.2663 40.4956 16.5701C41.798 17.8676 42.8304 19.4105 43.5329 21.1094C44.2355 22.8084 44.5943 24.6297 44.5887 26.4682C44.585 34.1819 38.3094 40.4594 30.5994 40.4594ZM38.2737 29.9801C37.8519 29.7682 35.7856 28.7519 35.3994 28.6113C35.015 28.4707 34.7356 28.4013 34.4544 28.8213C34.1731 29.2413 33.3669 30.1882 33.1212 30.4694C32.8756 30.7507 32.63 30.7844 32.21 30.5744C31.79 30.3644 30.4344 29.9201 28.8275 28.4876C27.5769 27.3719 26.7331 25.9957 26.4875 25.5738C26.2419 25.1519 26.4612 24.9251 26.6731 24.7151C26.8625 24.5276 27.0931 24.2238 27.3031 23.9782C27.5131 23.7326 27.5825 23.5582 27.7231 23.2769C27.8638 22.9957 27.7944 22.7501 27.6875 22.5401C27.5825 22.3282 26.7406 20.2582 26.39 19.4163C26.0506 18.6007 25.7037 18.7094 25.445 18.6982C25.177 18.6872 24.9088 18.6822 24.6406 18.6832C24.4274 18.6886 24.2175 18.7381 24.0242 18.8284C23.831 18.9187 23.6585 19.048 23.5175 19.2082C23.1313 19.6301 22.0456 20.6463 22.0456 22.7163C22.0456 24.7863 23.5531 26.7869 23.7631 27.0682C23.9731 27.3494 26.7294 31.5963 30.9481 33.4188C31.9531 33.8519 32.7369 34.1107 33.3462 34.3057C34.3531 34.6263 35.27 34.5794 35.9956 34.4726C36.8037 34.3526 38.4837 33.4563 38.8344 32.4738C39.185 31.4913 39.185 30.6494 39.08 30.4732C38.975 30.2969 38.6919 30.1901 38.2737 29.9801" fill="white"/>
</svg>
