<svg width="62" height="54" viewBox="0 0 62 54" fill="none" xmlns="http://www.w3.org/2000/svg">
<rect width="62" height="54" rx="5" fill="#100F14"/>
<path d="M50.1875 26.375C50.1875 26.2783 50.1875 26.1685 50.1831 26.041C50.1787 25.6851 50.1699 25.2852 50.1611 24.8589C50.126 23.6328 50.0645 22.4111 49.9678 21.2598C49.8359 19.6733 49.6426 18.3506 49.3789 17.3574C49.1007 16.321 48.5552 15.3757 47.7972 14.6161C47.0391 13.8565 46.095 13.3092 45.0591 13.0288C43.8154 12.6948 41.3809 12.4883 37.9531 12.3608C36.3228 12.2993 34.5781 12.2598 32.8335 12.2378C32.2227 12.229 31.6558 12.2246 31.146 12.2202H29.854C29.3442 12.2246 28.7773 12.229 28.1665 12.2378C26.4219 12.2598 24.6772 12.2993 23.0469 12.3608C19.6191 12.4927 17.1802 12.6992 15.9409 13.0288C14.9047 13.3085 13.9602 13.8556 13.202 14.6153C12.4438 15.375 11.8987 16.3206 11.6211 17.3574C11.353 18.3506 11.1641 19.6733 11.0322 21.2598C10.9355 22.4111 10.874 23.6328 10.8389 24.8589C10.8257 25.2852 10.8213 25.6851 10.8169 26.041C10.8169 26.1685 10.8125 26.2783 10.8125 26.375V26.6211C10.8125 26.7178 10.8125 26.8276 10.8169 26.9551C10.8213 27.311 10.8301 27.7109 10.8389 28.1372C10.874 29.3633 10.9355 30.585 11.0322 31.7363C11.1641 33.3228 11.3574 34.6455 11.6211 35.6387C12.1836 37.7437 13.8359 39.4048 15.9409 39.9673C17.1802 40.3013 19.6191 40.5078 23.0469 40.6353C24.6772 40.6968 26.4219 40.7363 28.1665 40.7583C28.7773 40.7671 29.3442 40.7715 29.854 40.7759H31.146C31.6558 40.7715 32.2227 40.7671 32.8335 40.7583C34.5781 40.7363 36.3228 40.6968 37.9531 40.6353C41.3809 40.5034 43.8198 40.2969 45.0591 39.9673C47.1641 39.4048 48.8164 37.7481 49.3789 35.6387C49.647 34.6455 49.8359 33.3228 49.9678 31.7363C50.0645 30.585 50.126 29.3633 50.1611 28.1372C50.1743 27.7109 50.1787 27.311 50.1831 26.9551C50.1831 26.8276 50.1875 26.7178 50.1875 26.6211V26.375V26.375ZM47.0234 26.6035C47.0234 26.6958 47.0234 26.7969 47.019 26.9155C47.0146 27.2583 47.0059 27.6362 46.9971 28.0449C46.9663 29.2139 46.9048 30.3828 46.8125 31.4683C46.6938 32.8833 46.5269 34.0435 46.3203 34.8213C46.0479 35.8364 45.248 36.6406 44.2373 36.9087C43.3145 37.1548 40.9897 37.3525 37.8301 37.4712C36.2305 37.5327 34.5078 37.5723 32.7895 37.5942C32.1875 37.603 31.6294 37.6074 31.1284 37.6074H29.8716L28.2104 37.5942C26.4922 37.5723 24.7739 37.5327 23.1699 37.4712C20.0103 37.3481 17.6812 37.1548 16.7627 36.9087C15.752 36.6362 14.9521 35.8364 14.6797 34.8213C14.4731 34.0435 14.3062 32.8833 14.1875 31.4683C14.0952 30.3828 14.0381 29.2139 14.0029 28.0449C13.9897 27.6362 13.9854 27.2539 13.981 26.9155C13.981 26.7969 13.9766 26.6914 13.9766 26.6035V26.3926C13.9766 26.3003 13.9766 26.1992 13.981 26.0806C13.9854 25.7378 13.9941 25.3599 14.0029 24.9512C14.0337 23.7822 14.0952 22.6133 14.1875 21.5278C14.3062 20.1128 14.4731 18.9526 14.6797 18.1748C14.9521 17.1597 15.752 16.3555 16.7627 16.0874C17.6855 15.8413 20.0103 15.6436 23.1699 15.5249C24.7695 15.4634 26.4922 15.4238 28.2104 15.4019C28.8125 15.3931 29.3706 15.3887 29.8716 15.3887H31.1284L32.7895 15.4019C34.5078 15.4238 36.2261 15.4634 37.8301 15.5249C40.9897 15.6479 43.3188 15.8413 44.2373 16.0874C45.248 16.3599 46.0479 17.1597 46.3203 18.1748C46.5269 18.9526 46.6938 20.1128 46.8125 21.5278C46.9048 22.6133 46.9619 23.7822 46.9971 24.9512C47.0103 25.3599 47.0146 25.7422 47.019 26.0806C47.019 26.1992 47.0234 26.3047 47.0234 26.3926V26.6035ZM26.5889 32.3867L36.7842 26.4541L26.5889 20.6094V32.3867Z" fill="white"/>
</svg>
